<?xml version="1.0" standalone="no"?>
<!DOCTYPE svg PUBLIC "-//W3C//DTD SVG 20010904//EN"
 "http://www.w3.org/TR/2001/REC-SVG-20010904/DTD/svg10.dtd">
<svg version="1.0" xmlns="http://www.w3.org/2000/svg"
 width="225.000000pt" height="225.000000pt" viewBox="0 0 225.000000 225.000000"
 preserveAspectRatio="xMidYMid meet">

<g transform="translate(0.000000,225.000000) scale(0.100000,-0.100000)"
fill="#000000" stroke="none">
<path d="M942 1918 c-281 -24 -540 -136 -682 -295 -141 -159 -188 -418 -85
-473 19 -10 25 -22 25 -46 l0 -33 -48 6 c-37 4 -51 2 -62 -12 -21 -26 -1 -48
56 -60 l49 -10 3 -56 3 -56 -51 -5 c-116 -11 -178 -116 -132 -221 14 -32 32
-52 61 -69 33 -19 41 -28 41 -53 0 -78 47 -156 114 -193 28 -16 101 -17 891
-17 790 0 863 1 891 17 67 37 114 115 114 193 0 25 8 34 41 53 29 17 47 37 61
69 46 105 -16 210 -132 221 l-51 5 3 56 3 56 49 10 c57 12 77 34 56 60 -11 14
-25 16 -62 12 l-48 -6 0 33 c0 24 6 36 25 46 73 39 73 197 1 345 -116 235
-407 392 -789 424 -143 12 -196 12 -345 -1z m433 -83 c268 -39 466 -139 588
-298 63 -83 87 -149 87 -242 0 -63 -3 -76 -19 -85 -27 -14 -1785 -14 -1812 0
-16 9 -19 22 -19 85 0 93 24 159 87 242 120 156 322 260 583 298 119 18 384
18 505 0z m595 -759 c0 -52 -1 -55 -31 -65 -54 -19 -94 -13 -166 25 -52 28
-83 38 -133 41 -61 4 -70 2 -145 -36 -101 -52 -132 -52 -222 -4 -62 34 -75 37
-148 37 -74 0 -85 -2 -148 -37 -89 -48 -120 -48 -221 3 -109 55 -162 55 -271
0 -81 -41 -120 -48 -174 -29 -30 10 -31 13 -31 65 l0 54 845 0 845 0 0 -54z
m-1227 -110 c57 -30 79 -36 131 -36 53 0 74 6 141 40 43 22 93 40 110 40 17 0
67 -18 110 -40 67 -34 88 -40 141 -40 52 0 74 6 131 36 102 53 133 54 218 8
65 -35 76 -38 157 -38 l88 -1 0 -27 0 -28 -845 0 -845 0 0 28 0 28 70 -4 c62
-4 76 -1 137 29 37 18 77 36 88 41 36 13 99 0 168 -36z m136 -171 c25 -13 36
-30 55 -88 4 -13 14 -17 33 -15 25 3 28 7 28 38 -1 19 -4 45 -9 58 l-7 22 561
0 c614 0 612 0 627 -58 11 -41 5 -65 -23 -89 -25 -23 -27 -23 -355 -23 -323 0
-329 0 -319 19 5 11 10 35 10 55 0 26 -5 36 -20 41 -27 9 -50 -11 -50 -42 0
-13 -11 -35 -25 -48 l-24 -25 -615 0 -615 0 -25 23 c-42 37 -36 106 12 131 40
22 719 23 761 1z m1171 -275 c0 -48 -22 -85 -61 -106 -42 -21 -1686 -21 -1728
0 -39 21 -61 58 -61 106 l0 40 925 0 925 0 0 -40z"/>
<path d="M1067 1759 c-26 -15 -20 -42 18 -79 29 -28 39 -32 53 -24 26 17 26
43 0 71 -32 35 -51 43 -71 32z"/>
<path d="M1375 1721 c-10 -31 9 -48 65 -60 60 -13 80 -6 80 25 0 29 -25 43
-89 51 -44 5 -50 3 -56 -16z"/>
<path d="M747 1679 c-12 -7 -17 -23 -17 -54 0 -35 4 -45 20 -50 31 -10 50 12
50 56 0 43 -23 64 -53 48z"/>
<path d="M1620 1655 c-19 -23 -4 -48 46 -75 108 -57 194 -148 219 -233 13 -45
33 -64 59 -54 23 9 21 67 -6 125 -29 63 -148 180 -224 220 -70 36 -77 38 -94
17z"/>
<path d="M1297 1553 c-15 -14 -5 -41 27 -72 61 -59 108 -11 49 51 -25 26 -61
36 -76 21z"/>
<path d="M957 1492 c-59 -62 -12 -110 49 -51 41 40 42 72 4 77 -17 2 -34 -6
-53 -26z"/>
<path d="M511 1445 c-25 -29 -29 -39 -21 -55 16 -29 42 -24 80 15 28 29 32 39
24 53 -19 30 -49 26 -83 -13z"/>
<path d="M1568 1420 c-33 -25 -44 -56 -28 -75 19 -23 43 -18 74 14 52 55 12
108 -46 61z"/>
<path d="M737 1393 c-15 -14 -6 -48 20 -75 29 -30 52 -35 71 -16 18 18 15 33
-14 67 -24 29 -61 40 -77 24z"/>
<path d="M1173 1344 c-14 -37 29 -63 84 -49 19 4 24 11 21 33 -3 25 -7 27 -51
30 -37 2 -49 -1 -54 -14z"/>
</g>
</svg>
